<svg width="512" height="512" viewBox="0 0 512 512" fill="none" xmlns="http://www.w3.org/2000/svg">
<g clip-path="url(#clip0_205_175)">
<rect width="512" height="512" fill="#121827"/>
<circle cx="255.7" cy="211.7" r="136.7" fill="url(#paint0_linear_205_175)"/>
<ellipse cx="255.7" cy="211.9" rx="77.9617" ry="75.225" fill="black"/>
<ellipse cx="313.036" cy="162.106" rx="17.1542" ry="17.5547" fill="#D9D9D9"/>
<ellipse cx="288.473" cy="187.27" rx="7.40903" ry="7.60927" fill="#D9D9D9"/>
<path d="M93.4513 450.052C88.5399 450.052 83.8331 449.409 79.331 448.123C74.8289 446.778 71.2038 445.053 68.4557 442.948L73.2794 432.249C75.9105 434.12 79.0094 435.669 82.576 436.897C86.2011 438.066 89.8555 438.651 93.539 438.651C96.3455 438.651 98.5966 438.388 100.292 437.862C102.046 437.277 103.333 436.488 104.151 435.494C104.97 434.5 105.379 433.359 105.379 432.073C105.379 430.436 104.736 429.15 103.45 428.214C102.163 427.22 100.468 426.431 98.3627 425.846C96.2578 425.203 93.9191 424.618 91.3464 424.092C88.8322 423.507 86.2888 422.806 83.7162 421.987C81.202 421.169 78.8925 420.116 76.7876 418.83C74.6827 417.544 72.9578 415.848 71.613 413.743C70.3267 411.638 69.6836 408.949 69.6836 405.674C69.6836 402.166 70.6191 398.98 72.4901 396.115C74.4196 393.191 77.2846 390.882 81.0851 389.186C84.944 387.432 89.7678 386.555 95.5562 386.555C99.4152 386.555 103.216 387.023 106.958 387.958C110.7 388.835 114.003 390.18 116.868 391.992L112.483 402.78C109.618 401.143 106.753 399.944 103.888 399.184C101.023 398.366 98.2166 397.956 95.4685 397.956C92.7205 397.956 90.4694 398.278 88.7153 398.921C86.9612 399.564 85.7041 400.412 84.944 401.464C84.1839 402.458 83.8039 403.628 83.8039 404.973C83.8039 406.551 84.4471 407.838 85.7334 408.832C87.0197 409.767 88.7153 410.527 90.8202 411.112C92.9251 411.697 95.2346 412.281 97.7488 412.866C100.321 413.451 102.865 414.123 105.379 414.883C107.952 415.643 110.29 416.666 112.395 417.953C114.5 419.239 116.196 420.935 117.482 423.04C118.827 425.145 119.499 427.805 119.499 431.021C119.499 434.47 118.535 437.628 116.605 440.493C114.676 443.358 111.781 445.667 107.922 447.421C104.122 449.175 99.2982 450.052 93.4513 450.052ZM151.66 449.702C146.281 449.702 141.545 448.649 137.452 446.544C133.418 444.439 130.289 441.574 128.068 437.949C125.846 434.266 124.735 430.085 124.735 425.408C124.735 420.672 125.817 416.491 127.98 412.866C130.202 409.182 133.213 406.317 137.013 404.271C140.814 402.166 145.111 401.114 149.906 401.114C154.525 401.114 158.676 402.108 162.36 404.096C166.102 406.025 169.055 408.832 171.218 412.515C173.381 416.14 174.463 420.496 174.463 425.583C174.463 426.109 174.434 426.723 174.375 427.425C174.317 428.068 174.258 428.682 174.2 429.267H135.873V421.286H167.008L161.746 423.654C161.746 421.198 161.249 419.064 160.255 417.251C159.261 415.439 157.887 414.035 156.133 413.041C154.379 411.989 152.332 411.463 149.994 411.463C147.655 411.463 145.579 411.989 143.767 413.041C142.013 414.035 140.639 415.468 139.645 417.339C138.651 419.151 138.154 421.315 138.154 423.829V425.934C138.154 428.507 138.709 430.787 139.82 432.775C140.989 434.704 142.597 436.195 144.644 437.248C146.749 438.242 149.204 438.739 152.011 438.739C154.525 438.739 156.718 438.359 158.589 437.598C160.518 436.838 162.272 435.698 163.851 434.178L171.13 442.071C168.967 444.527 166.248 446.427 162.974 447.772C159.7 449.058 155.928 449.702 151.66 449.702ZM206.989 449.702C201.61 449.702 196.874 448.649 192.781 446.544C188.746 444.439 185.618 441.574 183.396 437.949C181.175 434.266 180.064 430.085 180.064 425.408C180.064 420.672 181.145 416.491 183.309 412.866C185.531 409.182 188.542 406.317 192.342 404.271C196.143 402.166 200.44 401.114 205.235 401.114C209.854 401.114 214.005 402.108 217.689 404.096C221.431 406.025 224.383 408.832 226.547 412.515C228.71 416.14 229.792 420.496 229.792 425.583C229.792 426.109 229.763 426.723 229.704 427.425C229.646 428.068 229.587 428.682 229.529 429.267H191.202V421.286H222.337L217.075 423.654C217.075 421.198 216.578 419.064 215.584 417.251C214.59 415.439 213.216 414.035 211.462 413.041C209.708 411.989 207.661 411.463 205.322 411.463C202.984 411.463 200.908 411.989 199.095 413.041C197.341 414.035 195.967 415.468 194.973 417.339C193.979 419.151 193.482 421.315 193.482 423.829V425.934C193.482 428.507 194.038 430.787 195.149 432.775C196.318 434.704 197.926 436.195 199.972 437.248C202.077 438.242 204.533 438.739 207.34 438.739C209.854 438.739 212.046 438.359 213.917 437.598C215.847 436.838 217.601 435.698 219.18 434.178L226.459 442.071C224.296 444.527 221.577 446.427 218.303 447.772C215.028 449.058 211.257 449.702 206.989 449.702ZM238.901 449V401.815H251.969V415.146L250.127 411.287C251.53 407.955 253.781 405.44 256.88 403.745C259.979 401.991 263.75 401.114 268.194 401.114V413.743C267.609 413.685 267.083 413.655 266.615 413.655C266.147 413.597 265.65 413.568 265.124 413.568C261.382 413.568 258.342 414.649 256.003 416.813C253.723 418.918 252.582 422.221 252.582 426.723V449H238.901ZM276.415 449V401.815H289.483V415.146L287.641 411.287C289.044 407.955 291.295 405.44 294.394 403.745C297.493 401.991 301.264 401.114 305.708 401.114V413.743C305.123 413.685 304.597 413.655 304.129 413.655C303.661 413.597 303.164 413.568 302.638 413.568C298.896 413.568 295.856 414.649 293.517 416.813C291.237 418.918 290.096 422.221 290.096 426.723V449H276.415Z" fill="white"/>
<path d="M326.069 449V399.184H306.423V387.607H359.922V399.184H340.277V449H326.069ZM384.786 449L358.299 387.607H373.647L396.801 441.984H387.768L411.272 387.607H425.393L398.818 449H384.786Z" fill="#515151"/>
</g>
<defs>
<linearGradient id="paint0_linear_205_175" x1="162.787" y1="313.157" x2="355.221" y2="117.652" gradientUnits="userSpaceOnUse">
<stop stop-color="#6F00DD" stop-opacity="0.75"/>
<stop offset="0.785" stop-color="#5B42E2"/>
</linearGradient>
<clipPath id="clip0_205_175">
<rect width="512" height="512" fill="white"/>
</clipPath>
</defs>
</svg>
